<!-- icon666.com - MILLIONS vector ICONS FREE --><svg version="1.1" id="Capa_1" xmlns="http://www.w3.org/2000/svg" xmlns:xlink="http://www.w3.org/1999/xlink" x="0px" y="0px" viewBox="0 0 496.485 496.485" style="enable-background:new 0 0 496.485 496.485;" xml:space="preserve"><circle style="fill:#2EA2DB;" cx="248.242" cy="248.242" r="248.242"></circle><polygon style="fill:#E1E6E9;" points="368.485,226.521 249.018,271.515 128,226.521 128,144.291 368.485,144.291 "></polygon><path style="fill:#193651;" d="M249.018,279.273c-0.776,0-1.552,0-3.103-0.776l-120.242-45.77c-3.103-0.776-4.655-3.879-4.655-6.982 v-81.455c0-4.655,3.103-7.758,7.758-7.758h239.709c4.655,0,7.758,3.103,7.758,7.758v82.23c0,3.103-2.327,6.206-4.655,6.982 l-120.242,45.77C250.57,279.273,249.794,279.273,249.018,279.273z M135.758,221.091l113.261,42.667l111.709-42.667v-69.042h-224.97 V221.091z"></path><path style="fill:#FDBF5E;" d="M128,226.521v43.442c0.776,39.564,20.17,74.473,50.424,96.194 c6.982,5.43,11.636,13.964,11.636,22.497h116.364l0,0c0-9.309,3.879-17.842,11.636-22.497c30.255-21.721,49.648-56.63,50.424-96.194 v-43.442l-119.467,44.994L128,226.521z"></path><path style="fill:#193651;" d="M306.424,396.412H190.061c-4.655,0-7.758-3.103-7.758-7.758c0-6.206-3.103-12.412-7.758-16.291 c-33.358-23.273-52.752-62.061-53.527-102.4v-43.442c0-2.327,1.552-4.655,3.103-6.206c2.327-1.552,4.655-1.552,6.982-0.776 l117.915,44.218l117.139-44.218c2.327-0.776,5.43-0.776,6.982,0.776c2.327,1.552,3.103,3.879,3.103,6.206v43.442 c-0.776,40.339-20.945,78.352-53.527,102.4c-5.43,3.879-8.533,10.085-8.533,16.291C314.182,392.533,311.079,396.412,306.424,396.412 z M197.042,380.897h102.4c1.552-8.533,6.982-16.291,13.964-20.945c28.703-20.945,46.545-54.303,47.321-89.988v-31.806 l-109.382,41.115c-1.552,0.776-3.879,0.776-5.43,0l-110.158-41.891v31.806c0.776,35.685,17.842,69.042,47.321,89.988 C190.061,364.606,195.491,372.364,197.042,380.897z"></path><g><rect x="87.661" y="283.927" style="fill:#193651;" width="15.515" height="14.739"></rect><rect x="393.309" y="283.927" style="fill:#193651;" width="15.515" height="14.739"></rect></g><g><rect x="87.661" y="332.024" style="fill:#193651;" width="15.515" height="14.739"></rect><rect x="393.309" y="332.024" style="fill:#193651;" width="15.515" height="14.739"></rect></g><g><rect x="87.661" y="379.345" style="fill:#193651;" width="15.515" height="14.739"></rect><rect x="393.309" y="379.345" style="fill:#193651;" width="15.515" height="14.739"></rect></g><g><rect x="87.661" y="235.83" style="fill:#193651;" width="15.515" height="14.739"></rect><rect x="393.309" y="235.83" style="fill:#193651;" width="15.515" height="14.739"></rect></g><path style="fill:#FFFFFF;" d="M190.061,388.655v41.891c0,6.982,5.43,11.636,11.636,11.636h93.091 c6.982,0,11.636-5.43,11.636-11.636v-41.891H190.061z"></path><path style="fill:#193651;" d="M294.788,449.939h-93.091c-10.861,0-19.394-8.533-19.394-19.394v-41.891 c0-4.655,3.103-7.758,7.758-7.758h116.364c4.655,0,7.758,3.103,7.758,7.758v41.891C314.182,441.406,305.648,449.939,294.788,449.939 z M197.818,396.412v34.133c0,2.327,1.552,3.879,3.879,3.879h93.091c2.327,0,3.879-1.552,3.879-3.879v-34.133H197.818z"></path><path style="fill:#FFFFFF;" d="M218.764,442.182v23.273c0,3.879,3.103,6.206,6.206,6.206h46.545c3.103,0,6.206-3.103,6.206-6.206 v-23.273H218.764z"></path><g><path style="fill:#193651;" d="M277.721,434.424h-59.733c-4.655,0-7.758,3.103-7.758,7.758v23.273 c0,7.758,6.206,13.964,13.964,13.964h47.321c7.758,0,13.964-6.206,13.964-13.964v-23.273 C285.479,438.303,282.376,434.424,277.721,434.424z M269.964,463.903h-44.218v-13.964h44.218V463.903z"></path><path style="fill:#193651;" d="M248.242,396.412c-4.655,0-7.758-3.103-7.758-7.758v-44.218c0-4.655,3.103-7.758,7.758-7.758 s7.758,3.103,7.758,7.758v44.218C256,392.533,252.897,396.412,248.242,396.412z"></path><path style="fill:#193651;" d="M248.242,352.194c-2.327,0-4.655-0.776-6.206-3.103l-27.152-34.909 c-2.327-3.103-2.327-8.533,1.552-10.861c3.103-2.327,8.533-2.327,10.861,1.552l20.945,27.152l20.945-27.152 c2.327-3.103,7.758-3.879,10.861-1.552c3.103,2.327,3.879,7.758,1.552,10.861l-27.152,34.909 C252.897,351.418,250.57,352.194,248.242,352.194z"></path><path style="fill:#193651;" d="M62.836,204.8c-4.655,0-7.758-3.103-7.758-7.758v-65.164c0-4.655,3.103-7.758,7.758-7.758 s7.758,3.103,7.758,7.758v65.164C70.594,200.921,66.715,204.8,62.836,204.8z"></path></g><polygon style="fill:#E1E6E9;" points="248.242,15.515 25.6,115.588 248.242,214.885 470.885,115.588 "></polygon><path style="fill:#193651;" d="M248.242,222.642c-0.776,0-2.327,0-3.103-0.776L22.497,122.57c-3.103-1.552-4.655-3.879-4.655-6.982 c0-3.103,1.552-6.206,4.655-6.982L245.139,8.533c2.327-0.776,4.655-0.776,6.206,0l222.642,100.073 c3.103,1.552,4.655,3.879,4.655,6.982c0,3.103-1.552,6.206-4.655,6.982l-222.642,99.297 C250.57,222.642,249.018,222.642,248.242,222.642z M44.218,115.588l204.024,90.764l204.024-91.539L248.242,24.048L44.218,115.588z"></path><polygon style="fill:#FFFFFF;" points="95.418,115.588 248.242,46.545 401.067,115.588 248.242,183.855 "></polygon><ellipse style="fill:#E1E6E9;" cx="248.242" cy="115.588" rx="33.358" ry="24.824"></ellipse><path style="fill:#193651;" d="M248.242,147.394c-22.497,0-41.115-14.739-41.115-32.582s18.618-32.582,41.115-32.582 s41.115,14.739,41.115,32.582C289.358,133.43,270.739,147.394,248.242,147.394z M248.242,98.521c-13.964,0-25.6,7.758-25.6,17.067 s11.636,16.291,25.6,16.291c13.964,0,25.6-7.758,25.6-17.067S262.206,98.521,248.242,98.521z"></path><circle style="fill:#FFFFFF;" cx="62.836" cy="211.782" r="14.739"></circle><path style="fill:#193651;" d="M62.836,234.279c-12.412,0-22.497-10.085-22.497-22.497s10.085-22.497,22.497-22.497 s22.497,10.085,22.497,22.497C85.333,224.194,75.248,234.279,62.836,234.279z M62.836,204.8c-3.879,0-6.982,3.103-6.982,6.982 c0,3.879,3.103,6.982,6.982,6.982s6.982-3.103,6.982-6.982C69.818,207.903,66.715,204.8,62.836,204.8z"></path></svg>