<svg width="741" height="121" viewBox="0 0 741 121" fill="none" xmlns="http://www.w3.org/2000/svg">
<path d="M228.531 103H190.375V34.4688H228.531V41.5H198.344V63.6719H226.797V70.6094H198.344V95.9688H228.531V103ZM260.828 103.938C254.328 103.938 249.172 101.719 245.359 97.2812C241.578 92.8438 239.688 86.25 239.688 77.5C239.688 68.6562 241.625 61.9844 245.5 57.4844C249.375 52.9531 254.531 50.6875 260.969 50.6875C263.688 50.6875 266.062 51.0469 268.094 51.7656C270.125 52.4844 271.875 53.4531 273.344 54.6719C274.812 55.8594 276.047 57.2188 277.047 58.75H277.609C277.484 57.7812 277.359 56.4531 277.234 54.7656C277.109 53.0781 277.047 51.7031 277.047 50.6406V30.0625H284.828V103H278.547L277.375 95.6875H277.047C276.078 97.2188 274.844 98.6094 273.344 99.8594C271.875 101.109 270.109 102.109 268.047 102.859C266.016 103.578 263.609 103.938 260.828 103.938ZM262.047 97.4688C267.547 97.4688 271.438 95.9062 273.719 92.7812C276 89.6562 277.141 85.0156 277.141 78.8594V77.4531C277.141 70.9219 276.047 65.9062 273.859 62.4062C271.703 58.9062 267.766 57.1562 262.047 57.1562C257.266 57.1562 253.688 59 251.312 62.6875C248.938 66.3438 247.75 71.3438 247.75 77.6875C247.75 84 248.922 88.875 251.266 92.3125C253.641 95.75 257.234 97.4688 262.047 97.4688ZM343.75 51.625V103H337.375L336.25 95.7812H335.828C334.766 97.5625 333.391 99.0625 331.703 100.281C330.016 101.5 328.109 102.406 325.984 103C323.891 103.625 321.656 103.938 319.281 103.938C315.219 103.938 311.812 103.281 309.062 101.969C306.312 100.656 304.234 98.625 302.828 95.875C301.453 93.125 300.766 89.5938 300.766 85.2812V51.625H308.641V84.7188C308.641 89 309.609 92.2031 311.547 94.3281C313.484 96.4219 316.438 97.4688 320.406 97.4688C324.219 97.4688 327.25 96.75 329.5 95.3125C331.781 93.875 333.422 91.7656 334.422 88.9844C335.422 86.1719 335.922 82.7344 335.922 78.6719V51.625H343.75ZM390.672 40.5156C386.891 40.5156 383.484 41.1719 380.453 42.4844C377.453 43.7656 374.891 45.6406 372.766 48.1094C370.672 50.5469 369.062 53.5 367.938 56.9688C366.812 60.4375 366.25 64.3438 366.25 68.6875C366.25 74.4375 367.141 79.4375 368.922 83.6875C370.734 87.9062 373.422 91.1719 376.984 93.4844C380.578 95.7969 385.062 96.9531 390.438 96.9531C393.5 96.9531 396.375 96.7031 399.062 96.2031C401.781 95.6719 404.422 95.0156 406.984 94.2344V101.172C404.484 102.109 401.859 102.797 399.109 103.234C396.359 103.703 393.094 103.938 389.312 103.938C382.344 103.938 376.516 102.5 371.828 99.625C367.172 96.7188 363.672 92.625 361.328 87.3438C359.016 82.0625 357.859 75.8281 357.859 68.6406C357.859 63.4531 358.578 58.7188 360.016 54.4375C361.484 50.125 363.609 46.4062 366.391 43.2812C369.203 40.1562 372.641 37.75 376.703 36.0625C380.797 34.3438 385.484 33.4844 390.766 33.4844C394.234 33.4844 397.578 33.8281 400.797 34.5156C404.016 35.2031 406.922 36.1875 409.516 37.4688L406.328 44.2188C404.141 43.2188 401.734 42.3594 399.109 41.6406C396.516 40.8906 393.703 40.5156 390.672 40.5156ZM464.969 77.2188C464.969 81.4375 464.422 85.2031 463.328 88.5156C462.234 91.8281 460.656 94.625 458.594 96.9062C456.531 99.1875 454.031 100.938 451.094 102.156C448.188 103.344 444.891 103.938 441.203 103.938C437.766 103.938 434.609 103.344 431.734 102.156C428.891 100.938 426.422 99.1875 424.328 96.9062C422.266 94.625 420.656 91.8281 419.5 88.5156C418.375 85.2031 417.812 81.4375 417.812 77.2188C417.812 71.5938 418.766 66.8125 420.672 62.875C422.578 58.9062 425.297 55.8906 428.828 53.8281C432.391 51.7344 436.625 50.6875 441.531 50.6875C446.219 50.6875 450.312 51.7344 453.812 53.8281C457.344 55.9219 460.078 58.9531 462.016 62.9219C463.984 66.8594 464.969 71.625 464.969 77.2188ZM425.875 77.2188C425.875 81.3438 426.422 84.9219 427.516 87.9531C428.609 90.9844 430.297 93.3281 432.578 94.9844C434.859 96.6406 437.797 97.4688 441.391 97.4688C444.953 97.4688 447.875 96.6406 450.156 94.9844C452.469 93.3281 454.172 90.9844 455.266 87.9531C456.359 84.9219 456.906 81.3438 456.906 77.2188C456.906 73.125 456.359 69.5938 455.266 66.625C454.172 63.625 452.484 61.3125 450.203 59.6875C447.922 58.0625 444.969 57.25 441.344 57.25C436 57.25 432.078 59.0156 429.578 62.5469C427.109 66.0781 425.875 70.9688 425.875 77.2188ZM502.75 50.6875C508.844 50.6875 513.453 52.1875 516.578 55.1875C519.703 58.1562 521.266 62.9375 521.266 69.5312V103H513.578V70.0469C513.578 65.7656 512.594 62.5625 510.625 60.4375C508.688 58.3125 505.703 57.25 501.672 57.25C495.984 57.25 491.984 58.8594 489.672 62.0781C487.359 65.2969 486.203 69.9688 486.203 76.0938V103H478.422V51.625H484.703L485.875 59.0312H486.297C487.391 57.2188 488.781 55.7031 490.469 54.4844C492.156 53.2344 494.047 52.2969 496.141 51.6719C498.234 51.0156 500.438 50.6875 502.75 50.6875ZM561.625 50.6875C567.719 50.6875 572.328 52.1875 575.453 55.1875C578.578 58.1562 580.141 62.9375 580.141 69.5312V103H572.453V70.0469C572.453 65.7656 571.469 62.5625 569.5 60.4375C567.562 58.3125 564.578 57.25 560.547 57.25C554.859 57.25 550.859 58.8594 548.547 62.0781C546.234 65.2969 545.078 69.9688 545.078 76.0938V103H537.297V51.625H543.578L544.75 59.0312H545.172C546.266 57.2188 547.656 55.7031 549.344 54.4844C551.031 53.2344 552.922 52.2969 555.016 51.6719C557.109 51.0156 559.312 50.6875 561.625 50.6875ZM615.953 50.6875C620.328 50.6875 624.078 51.6562 627.203 53.5938C630.328 55.5312 632.719 58.25 634.375 61.75C636.031 65.2188 636.859 69.2812 636.859 73.9375V78.7656H601.375C601.469 84.7969 602.969 89.3906 605.875 92.5469C608.781 95.7031 612.875 97.2812 618.156 97.2812C621.406 97.2812 624.281 96.9844 626.781 96.3906C629.281 95.7969 631.875 94.9219 634.562 93.7656V100.609C631.969 101.766 629.391 102.609 626.828 103.141C624.297 103.672 621.297 103.938 617.828 103.938C612.891 103.938 608.578 102.938 604.891 100.938C601.234 98.9062 598.391 95.9375 596.359 92.0312C594.328 88.125 593.312 83.3438 593.312 77.6875C593.312 72.1562 594.234 67.375 596.078 63.3438C597.953 59.2812 600.578 56.1562 603.953 53.9688C607.359 51.7812 611.359 50.6875 615.953 50.6875ZM615.859 57.0625C611.703 57.0625 608.391 58.4219 605.922 61.1406C603.453 63.8594 601.984 67.6562 601.516 72.5312H628.703C628.672 69.4688 628.188 66.7812 627.25 64.4688C626.344 62.125 624.953 60.3125 623.078 59.0312C621.203 57.7188 618.797 57.0625 615.859 57.0625ZM670.656 103.938C666.031 103.938 661.953 102.984 658.422 101.078C654.891 99.1719 652.141 96.2656 650.172 92.3594C648.203 88.4531 647.219 83.5312 647.219 77.5938C647.219 71.375 648.25 66.2969 650.312 62.3594C652.406 58.3906 655.281 55.4531 658.938 53.5469C662.594 51.6406 666.75 50.6875 671.406 50.6875C673.969 50.6875 676.438 50.9531 678.812 51.4844C681.219 51.9844 683.188 52.625 684.719 53.4062L682.375 59.9219C680.812 59.2969 679 58.7344 676.938 58.2344C674.906 57.7344 673 57.4844 671.219 57.4844C667.656 57.4844 664.688 58.25 662.312 59.7812C659.969 61.3125 658.203 63.5625 657.016 66.5312C655.859 69.5 655.281 73.1562 655.281 77.5C655.281 81.6562 655.844 85.2031 656.969 88.1406C658.125 91.0781 659.828 93.3281 662.078 94.8906C664.359 96.4219 667.203 97.1875 670.609 97.1875C673.328 97.1875 675.781 96.9062 677.969 96.3438C680.156 95.75 682.141 95.0625 683.922 94.2812V101.219C682.203 102.094 680.281 102.766 678.156 103.234C676.062 103.703 673.562 103.938 670.656 103.938ZM712.703 97.5625C713.984 97.5625 715.297 97.4531 716.641 97.2344C717.984 97.0156 719.078 96.75 719.922 96.4375V102.484C719.016 102.891 717.75 103.234 716.125 103.516C714.531 103.797 712.969 103.938 711.438 103.938C708.719 103.938 706.25 103.469 704.031 102.531C701.812 101.562 700.031 99.9375 698.688 97.6562C697.375 95.375 696.719 92.2188 696.719 88.1875V57.7188H689.406V53.9219L696.766 50.875L699.859 39.7188H704.547V51.625H719.594V57.7188H704.547V87.9531C704.547 91.1719 705.281 93.5781 706.75 95.1719C708.25 96.7656 710.234 97.5625 712.703 97.5625Z" fill="white"/>
<path d="M149.708 64.3889L106.435 45.6448L114.081 93.2491L125.189 80.9648L140.848 101.161L151.395 92.8218L135.735 72.6258L149.708 64.3889ZM147.688 92.3591L141.292 97.4163L125.395 76.9152L115.855 87.5384L109.908 50.5128L143.843 64.7544L131.792 71.8591L147.688 92.3591Z" fill="white" stroke="white" stroke-width="2"/>
<mask id="path-3-inside-1_10_81" fill="white">
<path fill-rule="evenodd" clip-rule="evenodd" d="M67.3222 15.0704C79.3578 8.97933 89.6378 6 99.7314 6C110.85 6 121.767 9.56067 134.647 16.3835V61.1412L129.471 59.2176L129.471 19.5497C117.995 13.7805 108.727 11.1905 99.734 11.1905C90.6322 11.1905 81.3387 13.7805 69.9142 19.542V106.674C69.935 106.678 69.955 106.682 69.9751 106.685C69.9952 106.688 70.0152 106.691 70.0359 106.695C81.0539 101.759 90.6943 99.4519 100.213 99.4519C109.561 99.4519 119.01 101.731 129.471 106.558L129.471 80.3765L134.647 87.1054L134.647 115C122.086 108.076 111.21 104.64 100.21 104.64C90.6632 104.637 81.0202 107.227 70.0929 112.374C70.0922 112.373 70.0914 112.372 70.0907 112.372C70.0889 112.37 70.087 112.369 70.0851 112.368C70.0826 112.367 70.08 112.366 70.0774 112.363L67.242 113.643L63.7255 111.816C53.9479 107.118 44.9264 104.78 35.778 104.78C24.6046 104.78 13.2293 108.229 0 115V16.3835C13.1775 9.37122 24.18 6 34.996 6C45.3562 6 55.5611 9.12986 67.3222 15.0704ZM35.778 99.5921C45.2915 99.5921 54.5564 101.806 64.7354 106.534V19.5497C53.2591 13.7831 43.9916 11.1905 34.9986 11.1905C25.8968 11.1905 16.6033 13.7805 5.17883 19.542V106.794C16.3599 101.899 26.2308 99.5921 35.778 99.5921Z"/>
</mask>
<path fill-rule="evenodd" clip-rule="evenodd" d="M67.3222 15.0704C79.3578 8.97933 89.6378 6 99.7314 6C110.85 6 121.767 9.56067 134.647 16.3835V61.1412L129.471 59.2176L129.471 19.5497C117.995 13.7805 108.727 11.1905 99.734 11.1905C90.6322 11.1905 81.3387 13.7805 69.9142 19.542V106.674C69.935 106.678 69.955 106.682 69.9751 106.685C69.9952 106.688 70.0152 106.691 70.0359 106.695C81.0539 101.759 90.6943 99.4519 100.213 99.4519C109.561 99.4519 119.01 101.731 129.471 106.558L129.471 80.3765L134.647 87.1054L134.647 115C122.086 108.076 111.21 104.64 100.21 104.64C90.6632 104.637 81.0202 107.227 70.0929 112.374C70.0922 112.373 70.0914 112.372 70.0907 112.372C70.0889 112.37 70.087 112.369 70.0851 112.368C70.0826 112.367 70.08 112.366 70.0774 112.363L67.242 113.643L63.7255 111.816C53.9479 107.118 44.9264 104.78 35.778 104.78C24.6046 104.78 13.2293 108.229 0 115V16.3835C13.1775 9.37122 24.18 6 34.996 6C45.3562 6 55.5611 9.12986 67.3222 15.0704ZM35.778 99.5921C45.2915 99.5921 54.5564 101.806 64.7354 106.534V19.5497C53.2591 13.7831 43.9916 11.1905 34.9986 11.1905C25.8968 11.1905 16.6033 13.7805 5.17883 19.542V106.794C16.3599 101.899 26.2308 99.5921 35.778 99.5921Z" fill="white"/>
<path d="M129.471 70.7588L127.015 63.1452L121.471 64.9337L121.471 70.7588L129.471 70.7588ZM134.647 69.0889L142.647 69.0889L142.647 69.0889L134.647 69.0889ZM121.471 19.5497V106.558H137.471V19.5497H121.471ZM142.647 69.0889L142.647 61.1412L126.647 61.1412L126.647 69.0889L142.647 69.0889ZM142.647 77.1706L142.647 69.0889L126.647 69.0889L126.647 77.1706L142.647 77.1706ZM131.927 78.3724L137.103 76.7025L132.191 61.4753L127.015 63.1452L131.927 78.3724ZM140.872 72.1454L135.696 65.7336L123.246 75.784L128.422 82.1958L140.872 72.1454ZM142.647 87.1054L142.647 77.1706L126.647 77.1706L126.647 87.1055L142.647 87.1054ZM121.471 70.7588L121.471 106.558L137.471 106.558L137.471 70.7588L121.471 70.7588ZM67.3222 15.0704L60.1087 29.352L67.3293 32.9991L74.5471 29.3463L67.3222 15.0704ZM0 16.3835L-7.51632 2.25892L-16 6.77346V16.3835H0ZM0 115H-16V141.163L7.28973 129.243L0 115ZM63.7255 111.816L71.1024 97.6177L70.8801 97.5022L70.6542 97.3936L63.7255 111.816ZM67.242 113.643L59.8651 127.841L66.7503 131.418L73.8228 128.227L67.242 113.643ZM70.0774 112.363L81.4018 101.06L73.5838 93.2275L63.4965 97.7793L70.0774 112.363ZM70.0929 112.374L58.8169 123.725L66.7693 131.625L76.9101 126.849L70.0929 112.374ZM100.21 104.64L100.206 120.64H100.21V104.64ZM134.647 115L126.923 129.012L150.647 142.089L150.647 115L134.647 115ZM134.647 16.3835H150.647V6.75301L142.137 2.24484L134.647 16.3835ZM64.7354 106.534L57.9946 121.045L80.7354 131.609V106.534H64.7354ZM5.17883 106.794H-10.8212V131.264L11.5951 121.451L5.17883 106.794ZM5.17883 19.542L-2.02574 5.2558L-10.8212 9.69137V19.542H5.17883ZM64.7354 19.5497H80.7354V9.6831L71.9192 5.25312L64.7354 19.5497ZM129.471 106.558L122.767 121.086L145.471 131.562L145.471 106.558L129.471 106.558ZM70.0359 106.695L67.0804 122.42L72.0048 123.345L76.5776 121.297L70.0359 106.695ZM69.9142 106.674H53.9142V119.947L66.9587 122.399L69.9142 106.674ZM69.9142 19.542L62.7097 5.2558L53.9142 9.69137V19.542H69.9142ZM129.471 19.5497L145.471 19.5497L145.471 9.68509L136.657 5.25441L129.471 19.5497ZM129.471 59.2176L113.471 59.2177L113.471 70.3409L123.897 74.2156L129.471 59.2176ZM134.647 61.1412L129.074 76.1391L150.647 84.1559V61.1412H134.647ZM129.471 80.3765L142.153 70.621L113.471 33.3354L113.471 80.3765L129.471 80.3765ZM134.647 87.1054L150.647 87.1054L150.647 81.6634L147.329 77.3499L134.647 87.1054ZM70.0851 112.368L62.9082 126.668L62.9146 126.672L70.0851 112.368ZM70.0907 112.372L79.772 99.6331L79.7712 99.6324L70.0907 112.372ZM99.7314 -10C86.3085 -10 73.505 -5.99091 60.0974 0.794429L74.5471 29.3463C85.2107 23.9496 92.9671 22 99.7314 22V-10ZM74.5358 0.788751C61.5132 -5.78893 48.7642 -10 34.996 -10V22C41.9482 22 49.609 24.0486 60.1087 29.352L74.5358 0.788751ZM34.996 -10C20.64 -10 6.99925 -5.46543 -7.51632 2.25892L7.51632 30.5082C19.3558 24.2079 27.7199 22 34.996 22V-10ZM-16 16.3835V115H16V16.3835H-16ZM7.28973 129.243C19.2379 123.128 28.0456 120.78 35.778 120.78V88.7799C21.1637 88.7799 7.22072 93.3304 -7.28973 100.757L7.28973 129.243ZM35.778 120.78C42.0226 120.78 48.6744 122.335 56.7969 126.238L70.6542 97.3936C59.2214 91.9011 47.8302 88.7799 35.778 88.7799V120.78ZM56.3486 126.014L59.8651 127.841L74.6189 99.4448L71.1024 97.6177L56.3486 126.014ZM73.8228 128.227L76.6582 126.947L63.4965 97.7793L60.6611 99.0587L73.8228 128.227ZM76.9101 126.849C86.4295 122.365 93.7059 120.638 100.206 120.64L100.215 88.6398C87.6205 88.6364 75.611 92.0892 63.2757 97.8986L76.9101 126.849ZM100.21 120.64C107.629 120.64 115.814 122.889 126.923 129.012L142.371 100.988C128.358 93.2633 114.791 88.6398 100.21 88.6398V120.64ZM142.137 2.24484C128.06 -5.21239 114.48 -10 99.7314 -10V22C107.22 22 115.475 24.3337 127.157 30.5223L142.137 2.24484ZM71.4762 92.0236C59.5496 86.4833 47.9907 83.5921 35.778 83.5921V115.592C42.5922 115.592 49.5632 117.128 57.9946 121.045L71.4762 92.0236ZM35.778 83.5921C23.5203 83.5921 11.4499 86.5828 -1.23745 92.1367L11.5951 121.451C21.27 117.216 28.9413 115.592 35.778 115.592V83.5921ZM21.1788 106.794V19.542H-10.8212V106.794H21.1788ZM12.3834 33.8281C22.4046 28.7744 29.1883 27.1905 34.9986 27.1905V-4.80952C22.6052 -4.80952 10.8021 -1.21332 -2.02574 5.2558L12.3834 33.8281ZM34.9986 27.1905C40.6774 27.1905 47.4337 28.7623 57.5516 33.8464L71.9192 5.25312C59.0845 -1.19607 47.3058 -4.80952 34.9986 -4.80952V27.1905ZM48.7354 19.5497V106.534H80.7354V19.5497H48.7354ZM136.174 92.0297C124.063 86.4412 112.326 83.4519 100.213 83.4519V115.452C106.796 115.452 113.956 117.02 122.767 121.086L136.174 92.0297ZM100.213 83.4519C87.9298 83.4519 76.0474 86.4697 63.4943 92.0936L76.5776 121.297C86.0605 117.048 93.4588 115.452 100.213 115.452V83.4519ZM85.9142 106.674V19.542H53.9142V106.674H85.9142ZM77.1188 33.8281C87.14 28.7744 93.9237 27.1905 99.734 27.1905V-4.80952C87.3406 -4.80952 75.5375 -1.21332 62.7097 5.2558L77.1188 33.8281ZM99.734 27.1905C105.415 27.1905 112.171 28.7609 122.284 33.8451L136.657 5.25441C123.818 -1.19982 112.039 -4.80952 99.734 -4.80952V27.1905ZM150.647 61.1412V16.3835H118.647V61.1412H150.647ZM123.897 74.2156L129.074 76.1391L140.22 46.1432L135.044 44.2197L123.897 74.2156ZM150.647 115L150.647 87.1054L118.647 87.1054L118.647 115L150.647 115ZM116.789 90.132L121.965 96.8609L147.329 77.3499L142.153 70.621L116.789 90.132ZM77.2621 98.0684C77.2256 98.0501 79.3785 99.0331 81.4018 101.06L58.753 123.666C60.7814 125.699 62.9395 126.684 62.9082 126.668L77.2621 98.0684ZM66.9587 122.399C67.0957 122.425 67.2098 122.445 67.2876 122.458C67.3596 122.47 67.4212 122.48 67.4265 122.481L72.5237 90.8891C72.5089 90.8867 72.5505 90.8934 72.6022 90.9021C72.6598 90.9118 72.7535 90.928 72.8698 90.9498L66.9587 122.399ZM67.4265 122.481C67.4413 122.483 67.3997 122.476 67.348 122.468C67.2904 122.458 67.1967 122.442 67.0804 122.42L72.9915 90.9706C72.8545 90.9448 72.7404 90.9251 72.6626 90.912C72.5906 90.8999 72.529 90.89 72.5237 90.8891L67.4265 122.481ZM62.9146 126.672C63.0261 126.728 61.7513 126.13 60.4102 125.111L79.7712 99.6324C79.0649 99.0958 78.4313 98.7071 77.9687 98.4453C77.744 98.3181 77.5579 98.2201 77.44 98.159C77.3805 98.1283 77.3321 98.1037 77.3024 98.0887C77.2873 98.081 77.275 98.0749 77.2675 98.0711C77.2637 98.0692 77.2606 98.0676 77.2587 98.0667C77.2577 98.0662 77.257 98.0658 77.2565 98.0655C77.2562 98.0654 77.256 98.0653 77.2559 98.0653C77.2558 98.0652 77.2558 98.0652 77.2557 98.0652C77.2557 98.0652 77.2557 98.0651 77.2557 98.0651L62.9146 126.672ZM60.4094 125.11C59.8955 124.72 59.3567 124.261 58.8169 123.725L81.369 101.022C80.8276 100.485 80.2873 100.025 79.772 99.6331L60.4094 125.11ZM113.471 19.5497L113.471 59.2177L145.471 59.2176L145.471 19.5497L113.471 19.5497ZM145.471 106.558L145.471 80.3765L113.471 80.3765L113.471 106.558L145.471 106.558Z" fill="white" mask="url(#path-3-inside-1_10_81)"/>
</svg>
